<?xml version="1.0" encoding="UTF-8"?>
<svg id="Layer_2" data-name="Layer 2" xmlns="http://www.w3.org/2000/svg" viewBox="0 0 437.23 44.09">
  <defs>
    <style>
      .cls-1 {
        fill: #e79719;
      }

      .cls-2 {
        fill: #c41230;
      }
    </style>
  </defs>
  <g id="Layer_1-2" data-name="Layer 1">
    <g>
      <path class="cls-2" d="M11.17,5.21c.02,2.91-2.16,5.19-5.66,5.19S-.02,8.11,0,5.21C-.02,2.21,2.18,0,5.59,0s5.54,2.21,5.59,5.21ZM.09,43.42V13.46h10.99v29.96H.09Z"/>
      <path class="cls-2" d="M18.15,34.21c1.72,1.05,5.6,2.27,8.31,2.27,2.31,0,3.24-.52,3.24-1.63s-.69-1.58-3.9-2.6c-6.58-2.09-8.83-5.66-8.78-9.15,0-5.97,5.1-10.31,12.96-10.31,3.7,0,7,.82,8.91,1.71l-1.74,7.46c-1.43-.7-4.22-1.66-6.64-1.66-1.87,0-2.98.5-2.98,1.69,0,.99.94,1.6,4.51,2.76,5.91,1.93,8.16,4.99,8.21,9.32,0,5.71-4.46,10-13.69,10-4.17,0-7.89-.9-10.25-2.12l1.84-7.73Z"/>
      <path class="cls-2" d="M56.32,25.65h.12c.69-1.35,1.29-2.54,1.96-3.68l4.9-8.51h13.14l-10.38,12.09,11.86,17.87h-13.49l-5.94-11.42-2.18,2.91v8.51h-10.98V.18h10.98v25.47Z"/>
      <path class="cls-2" d="M109.68,33.22c0,4.22.12,7.66.24,10.2h-9.47l-.49-3.94h-.21c-1.08,1.61-3.71,4.61-9.09,4.61-6.68,0-10.61-4.31-10.61-12.97V13.46h10.99v15.91c0,3.82,1.25,5.91,3.84,5.91,2.06,0,3.11-1.42,3.53-2.54.21-.44.27-1,.27-1.63V13.46h10.99v19.76Z"/>
      <path class="cls-2" d="M116.81,34.21c1.72,1.05,5.6,2.27,8.31,2.27,2.31,0,3.24-.52,3.24-1.63s-.69-1.58-3.9-2.6c-6.58-2.09-8.83-5.66-8.78-9.15,0-5.97,5.1-10.31,12.96-10.31,3.7,0,7,.82,8.91,1.71l-1.74,7.46c-1.43-.7-4.22-1.66-6.64-1.66-1.87,0-2.98.5-2.98,1.69,0,.99.94,1.6,4.51,2.76,5.91,1.93,8.16,4.99,8.21,9.32,0,5.71-4.46,10-13.69,10-4.17,0-7.89-.9-10.25-2.12l1.84-7.73Z"/>
      <path class="cls-2" d="M156.02,4.95v8.51h6.23v8.04h-6.23v8.6c0,3.56.82,5.04,3.49,5.04,1.11,0,1.99-.11,2.6-.23v8.33c-1.26.44-3.71.82-6.53.82-3.23,0-5.92-1.14-7.51-2.73-1.83-1.83-2.77-4.76-2.77-9.33v-10.51h-3.7v-8.04h3.7v-6.1l10.72-2.41Z"/>
      <path class="cls-2" d="M176.58,13.46l3.24,12.71c.61,2.42,1.02,4.73,1.4,7.1h.21c.37-2.47.73-4.6,1.29-7.1l2.98-12.71h11.54l-10.89,29.96h-11.04l-10.67-29.96h11.92Z"/>
      <path class="cls-2" d="M217.81,43.42l-.58-2.63h-.21c-2.09,2.41-5.07,3.3-8.3,3.3-6.12,0-9.91-4.42-9.91-9.41,0-8.04,7.22-11.62,17.4-11.63v-.27c0-1.23-.93-2.56-4.92-2.56-3.17,0-6.5,1.13-8.45,2.24l-1.92-6.96c1.92-1.02,6.2-2.71,12.39-2.71,10.32,0,13.87,5.74,13.87,13.21v10.12c0,2.98.17,5.77.49,7.29h-9.86ZM216.56,29.73c-4.48.02-7,1.25-7,3.87,0,1.92,1.25,2.89,3.11,2.89,1.57,0,3.26-1.11,3.76-2.77.12-.44.14-1,.14-1.54v-2.45Z"/>
      <path class="cls-1" d="M242.11,13.46l3.24,12.71c.61,2.42,1.02,4.73,1.4,7.1h.21c.37-2.47.73-4.6,1.29-7.1l2.98-12.71h11.54l-10.89,29.96h-11.04l-10.67-29.96h11.92Z"/>
      <path class="cls-1" d="M296.2,28.13c0,10.89-7.78,15.96-16.17,15.96-8.97,0-15.93-5.69-15.93-15.44s6.29-15.86,16.49-15.86c9.39,0,15.61,6.33,15.61,15.35ZM275.43,28.42c0,4.49,1.48,7.92,4.87,7.92,2.95,0,4.57-3.11,4.57-7.92,0-4.14-1.34-7.89-4.6-7.89-3.61,0-4.84,3.97-4.84,7.89Z"/>
      <path class="cls-1" d="M298.99,37.15l7.69-9.32c1.86-2.13,3.26-3.67,5.09-5.56v-.14h-11.8v-8.68h25.21v6.55l-7.17,8.75c-1.78,2.07-3.47,4.1-5.33,5.85v.14h13.06v8.68h-26.75v-6.27Z"/>
      <path class="cls-1" d="M347.77,43.42l-.58-2.63h-.21c-2.09,2.41-5.07,3.3-8.3,3.3-6.12,0-9.91-4.42-9.91-9.41,0-8.04,7.21-11.62,17.4-11.63v-.27c0-1.23-.93-2.56-4.92-2.56-3.17,0-6.5,1.13-8.45,2.24l-1.92-6.96c1.92-1.02,6.2-2.71,12.39-2.71,10.32,0,13.87,5.74,13.87,13.21v10.12c0,2.98.17,5.77.49,7.29h-9.87ZM346.52,29.73c-4.47.02-7,1.25-7,3.87,0,1.92,1.25,2.89,3.11,2.89,1.57,0,3.26-1.11,3.76-2.77.12-.44.14-1,.14-1.54v-2.45Z"/>
      <path class="cls-1" d="M386.87,42.81c-1.78.81-4.9,1.25-8.24,1.25-9.96,0-16.23-5.83-16.23-15.35,0-8.56,5.86-15.89,17.57-15.89,2.15,0,4.77.29,6.91,1l-1.55,8.08c-1.04-.41-2.5-.75-4.72-.75-4.11,0-7.02,2.8-6.97,7.14,0,4.89,3.37,7.23,7.25,7.23,1.87,0,3.42-.23,4.81-.78l1.17,8.05Z"/>
      <path class="cls-1" d="M408.97,43.42l-.58-2.63h-.21c-2.09,2.41-5.07,3.3-8.3,3.3-6.12,0-9.91-4.42-9.91-9.41,0-8.04,7.21-11.62,17.4-11.63v-.27c0-1.23-.93-2.56-4.92-2.56-3.17,0-6.5,1.13-8.45,2.24l-1.92-6.96c1.92-1.02,6.2-2.71,12.39-2.71,10.32,0,13.87,5.74,13.87,13.21v10.12c0,2.98.17,5.77.49,7.29h-9.87ZM407.72,29.73c-4.47.02-7,1.25-7,3.87,0,1.92,1.25,2.89,3.11,2.89,1.57,0,3.26-1.11,3.76-2.77.12-.44.14-1,.14-1.54v-2.45Z"/>
      <path class="cls-1" d="M424.7,37.7c0-3.76,2.6-6.41,6.27-6.41s6.21,2.57,6.26,6.41c0,3.75-2.51,6.39-6.27,6.39s-6.26-2.65-6.26-6.39Z"/>
    </g>
  </g>
</svg>